<?xml version="1.0" encoding="UTF-8"?>
<svg version="1.1" xmlns="http://www.w3.org/2000/svg" width="100" height="100">
<path d="M0 0 C0.91007812 0.00902344 1.82015625 0.01804688 2.7578125 0.02734375 C3.80582031 0.04474609 3.80582031 0.04474609 4.875 0.0625 C8.09902278 5.49098281 8.94593173 10.9430003 9.9375 17.125 C10.25673744 19.07504077 10.58080053 21.02429891 10.91015625 22.97265625 C11.0481665 23.82996338 11.18617676 24.68727051 11.32836914 25.57055664 C11.91054324 28.22453209 12.82841718 30.55950912 13.875 33.0625 C14.3834603 34.99251945 14.86147618 36.93075607 15.3125 38.875 C16.51866971 43.79521703 17.96991165 48.37850178 19.875 53.0625 C20.55949219 54.81626953 20.55949219 54.81626953 21.2578125 56.60546875 C24.3840696 64.68952803 24.3840696 64.68952803 28.25 72.4375 C30.23183928 76.85852609 30.62370081 80.29638022 29.875 85.0625 C28.12732015 89.20174176 25.68095454 91.69435051 21.875 94.0625 C17.11064466 95.39613293 13.28617866 95.50025663 8.875 93.0625 C5.5625 91.0625 5.5625 91.0625 2.875 89.0625 C2.875 88.4025 2.875 87.7425 2.875 87.0625 C2.153125 86.815 1.43125 86.5675 0.6875 86.3125 C-2.125 85.0625 -2.125 85.0625 -4.43359375 83.16796875 C-8.01932614 80.36287476 -11.88664755 78.64679312 -15.9921875 76.72265625 C-19.64809601 74.78529825 -22.80158323 72.52382746 -26.125 70.0625 C-26.64449219 71.20847656 -27.16398437 72.35445313 -27.69921875 73.53515625 C-28.40326349 75.06528015 -29.1077122 76.59521822 -29.8125 78.125 C-30.15216797 78.87716797 -30.49183594 79.62933594 -30.84179688 80.40429688 C-37.36509113 94.48729662 -37.36509113 94.48729662 -44.125 97.0625 C-50.55357143 96.63392857 -50.55357143 96.63392857 -52.125 95.0625 C-52.60638746 89.49514941 -51.42534303 85.74087699 -48.8125 80.9375 C-48.46437256 80.26952393 -48.11624512 79.60154785 -47.75756836 78.91333008 C-46.56002017 76.62247004 -45.34217354 74.34298831 -44.125 72.0625 C-42.63884514 69.23961072 -41.15732068 66.41433261 -39.67700195 63.58837891 C-38.69518833 61.71744542 -37.70943655 59.84857253 -36.71948242 57.98193359 C-36.26677979 57.1255127 -35.81407715 56.2690918 -35.34765625 55.38671875 C-34.94297119 54.62447998 -34.53828613 53.86224121 -34.12133789 53.0769043 C-33.0097832 50.94541557 -33.0097832 50.94541557 -32.125 48.0625 C-31.465 48.0625 -30.805 48.0625 -30.125 48.0625 C-30.02832031 47.38574219 -29.93164062 46.70898438 -29.83203125 46.01171875 C-28.9624566 42.38448746 -27.43999904 39.20743759 -25.8125 35.875 C-23.73914925 31.54368507 -21.72933561 27.2334627 -20 22.75 C-18.04127169 17.68285502 -15.62635118 12.88067645 -13.125 8.0625 C-12.465 8.0625 -11.805 8.0625 -11.125 8.0625 C-11.021875 7.423125 -10.91875 6.78375 -10.8125 6.125 C-10.585625 5.444375 -10.35875 4.76375 -10.125 4.0625 C-9.135 3.7325 -8.145 3.4025 -7.125 3.0625 C-7.125 2.4025 -7.125 1.7425 -7.125 1.0625 C-4.60024538 -0.19987731 -2.81299534 -0.03606404 0 0 Z M-10.125 39.0625 C-11.13008801 40.85131736 -12.12892736 42.64364696 -13.125 44.4375 C-13.681875 45.43523438 -14.23875 46.43296875 -14.8125 47.4609375 C-16.27514268 49.87445509 -16.27514268 49.87445509 -16.125 52.0625 C-12.495 52.3925 -8.865 52.7225 -5.125 53.0625 C-6.60631675 45.90457314 -6.60631675 45.90457314 -9.125 39.0625 C-9.455 39.0625 -9.785 39.0625 -10.125 39.0625 Z " fill="#22EE88" transform="translate(59.125,-0.0625)"/>
</svg>
